<svg xmlns="http://www.w3.org/2000/svg" xmlns:xlink="http://www.w3.org/1999/xlink" viewBox="0 0 623 180">
  <defs>
    <filter id="b" width="102.8%" height="117%" x="-1.4%" y="-6.8%" filterUnits="objectBoundingBox">
      <feOffset dy="2" in="SourceAlpha" result="shadowOffsetOuter1"/>
      <feGaussianBlur in="shadowOffsetOuter1" result="shadowBlurOuter1" stdDeviation="2"/>
      <feColorMatrix in="shadowBlurOuter1" result="shadowMatrixOuter1" values="0 0 0 0 0 0 0 0 0 0 0 0 0 0 0 0 0 0 0.5 0"/>
      <feOffset dx="3" dy="-2" in="SourceAlpha" result="shadowOffsetOuter2"/>
      <feGaussianBlur in="shadowOffsetOuter2" result="shadowBlurOuter2" stdDeviation=".5"/>
      <feColorMatrix in="shadowBlurOuter2" result="shadowMatrixOuter2" values="0 0 0 0 1 0 0 0 0 0.184313725 0 0 0 0 0.662745098 0 0 0 0.5 0"/>
      <feOffset dx="-1" dy="2" in="SourceAlpha" result="shadowOffsetOuter3"/>
      <feGaussianBlur in="shadowOffsetOuter3" result="shadowBlurOuter3" stdDeviation=".5"/>
      <feColorMatrix in="shadowBlurOuter3" result="shadowMatrixOuter3" values="0 0 0 0 0 0 0 0 0 0.956862745 0 0 0 0 1 0 0 0 0.5 0"/>
      <feMerge>
        <feMergeNode in="shadowMatrixOuter1"/>
        <feMergeNode in="shadowMatrixOuter2"/>
        <feMergeNode in="shadowMatrixOuter3"/>
      </feMerge>
    </filter>
    <path id="a" d="m86 1.9-3.7 17a735.7 735.7 0 0 0-5.9 29.2l-.8 4.1-.9 5.1-.3 2a239 239 0 0 0-1 6L73 68l-.5 3.4-.8 7-10 2.2-2.5.5-4.2 1-1.8.4-12.6 4.9-.4-5.8-24 5.6 4-19.9a2766.6 2766.6 0 0 0 5-25.5l.4-1.6a498 498 0 0 0 4-26.2l10.6-9h2.7a101.6 101.6 0 0 0 5.5-.2h2l1.5-.1 8.5-.4.2.7L86 2ZM263.4 5c4.6 0 8.4.9 11.5 2.3a22 22 0 0 1 8.6 6.7 25 25 0 0 1 4.5 9.1c.9 3 1.3 6.1 1.3 9.4a47 47 0 0 1-1.5 11.4 62.5 62.5 0 0 1-10.4 21.6 49.8 49.8 0 0 1-20.2 15.7 36.7 36.7 0 0 1-19.7 2.1L226.9 82l4.2-21.2 2.1-10.6 1.2-6.4.5-2.7 1.2-7 .9-4.9.7-3.8.4-2.5 1.2-7.3 1-7.1 7-1.3 7.3-1.3c2.8-.4 5.8-.7 8.7-.7Zm130-2L389 17.3l-2 7.2a372.7 372.7 0 0 0-3.6 17.7l-.5 2.3-1 5.5-.1 1c-1.6 9.2-3 18.5-4.3 28.2l-34 4v-.8l-19.9 4.2 4.7-23.2 2.6-13.4 1.2-6.6.5-2.8a484 484 0 0 0 2.8-17.3l.2-1.5c.4-2.8.8-5.4 1-7.8l1-9.3 9.4.4 3.2.2h.5a117.6 117.6 0 0 0 5.7.3h9.1l3-.3.6-.1 1.5-.1 22.8-2ZM95.7 5c2.4 0 4.6.3 6.7.9a18.6 18.6 0 0 1 13.8 18.6c0 1.4 0 2.7-.3 4l-.3 2-.8 6.5-8 2.3 1.5 3.2.2.5a29 29 0 0 1 1.8 10.7 28.6 28.6 0 0 1-9.6 21.8 30.6 30.6 0 0 1-10.2 6c-3.7 1.4-7.7 2-12 2-3.7 0-7.4-.8-11-2.8a34.2 34.2 0 0 1-13-13.6l10.3-20.5-1-1.6-.4-.5c-1.8-3-2.8-6.2-2.8-9.9 0-4.8 1.4-9.3 4.3-13.4 2.3-3.4 5.2-6.3 8.7-8.7A42.7 42.7 0 0 1 95.7 5Zm105.4-2-4.4 18.6a3480.8 3480.8 0 0 0-4.8 21.1l-.7 3.2a850.5 850.5 0 0 0-1.2 5.9v.3h5.8l.5 9.5a44.6 44.6 0 0 0 .4 4.2l.2 1.2.1.9.2 1.2-9.8 12a29.2 29.2 0 0 1-2.5 0 80.7 80.7 0 0 0-18 2.2l-15.2 5 2.6-18.9a781.8 781.8 0 0 1 2.3-14.5l.5-3.1 1.2-6.4L160 36l5.7-28.4L201.1 3Zm24.1 0L221 21.5a3480.8 3480.8 0 0 0-4.5 19.8l-.3 1.4a878.1 878.1 0 0 0-2 9v.3h5.9l.5 9.5a44.6 44.6 0 0 0 .4 4.2l.2 1.2.1.9.2 1.2-9.8 12a29.2 29.2 0 0 1-2.5 0 80.7 80.7 0 0 0-18 2.2l-15.2 5 2.5-18.1.7-5 .1-.9a302 302 0 0 1 2.7-15.7l.5-3.2 1.8-9.4c1.7-9.2 3.6-18.7 5.7-28.4l35.3-4.6Zm204.4 2a18.7 18.7 0 0 1 14.2 6.4c1.6 1.9 3 4.1 4 6.8.8 2.4 1.3 5 1.3 8v1c0 .8 0 1.7-.2 2.5l-1 6.6-16.8 4.5-.2-3.3a44 44 0 0 0-3.5 6.3v-.2l17.6 7c-2.2 7.8-5 14-8.5 18.8l-.3.5a41.3 41.3 0 0 1-6.6 7.1 28.8 28.8 0 0 1-8 5c-3 1.1-6 1.7-8.8 1.7a19 19 0 0 1-16.4-8.9c-1.5-2.3-2.8-5-3.8-8.4-.8-3-1.3-6.4-1.3-10.4a64 64 0 0 1 9.6-33.4c3.2-5 7.1-9.1 11.6-12.2a29.4 29.4 0 0 1 17-5.4Zm-95.7 0a18.7 18.7 0 0 1 14.2 6.4c1.6 1.9 3 4.1 4 6.8.8 2.4 1.3 5 1.3 8v1c0 .8 0 1.7-.2 2.5l-.9 6.6-16.9 4.5-.2-3.3a44 44 0 0 0-3.5 6.3v-.2l17.6 7c-2.2 7.8-5 14-8.5 18.8l-.3.5c-2 2.8-4.3 5.2-6.6 7.1a28.8 28.8 0 0 1-8 5c-3 1.1-6 1.7-8.8 1.7a19 19 0 0 1-16.3-8.9 26 26 0 0 1-3.8-8.4 36 36 0 0 1-1.3-10.4 64 64 0 0 1 9.5-33.4c3.2-5 7.1-9.1 11.6-12.2A29.4 29.4 0 0 1 334 5Zm-72.2-1.7L257 17.6l-.7 2.7-.8 3.1-.2 1.3-.3 1.4-1.4 7.5-1.3.1-1 6.1c0 1-.2 2-.3 2.9l-.2 1.4-.8 4.9-1.2 7-2 22.3-47.5 7.3L214 7.4l47.8-4Zm159.7 0L417 17.6l-.7 2.7-.8 3.1-.3 1.3-.2 1.4-1.5 7.5-1.3.1-.9 6.1c0 1-.2 2-.4 2.9l-.1 1.4-.8 4.9-1.2 7-2 22.3-47.5 7.3 14.4-78.2 47.8-4ZM150 3.5l-3.7 18-.5 2.4-.4 2.2-.6 2.8-1.3 5.7-5.8 1.6-.7.2-.6.1v.5l-.8 4-.2 1.3-.9 5.3-.2 1.8a588.3 588.3 0 0 0-4.4 30.6l-36.3 5.7a915 915 0 0 0 6-28.5l1-5.3.8-3.7.2-1.3a1704.9 1704.9 0 0 0 1.8-10l.2-1.2-6.6-2 .5-7.8v-2.4l.2-3.8.1-3v-.8l.4-10.4 10.4.8a98.7 98.7 0 0 0 14.9 0h1.8a188.7 188.7 0 0 0 10.9-1L150 3.5ZM502.3 0l-14.7 19.7A756 756 0 0 0 478 33l-2.6 3.8-1 1.5c-1 1.3-2 2.6-2.7 3.9v.5c.8 3 1.6 6 2.5 8.8l.4 1.4 1.6 5 3.3 10.4 4.3 13.6-14.2-.6a156.4 156.4 0 0 0-10.6-.1h-.8l-4.4.1-6.4.2-28.4 4.2c2.6-11.6 5-22.8 7.1-33.5l.5-2 .8-4.6a2141 2141 0 0 1 2.4-14.3 366.2 366.2 0 0 0 2.2-16.9l10.8-9h1l1.8.1 1 .1a164.9 164.9 0 0 1 8.7.4h2.9l4.6-.3L468 5l2.6-.2 7.4-1L502.3 0ZM47.6 3.4 42 35.3l-.5 3-1.2 7.4-.8 4.7-1 6.3-1.1 7.4-.6 4-.9 5.4-1.3 8.2-8.3.2a48.3 48.3 0 0 0-6.2.6l-2.4.3L0 85.2l3.5-15.4 1.3-6 .5-2.4A1104.2 1104.2 0 0 0 8 46l.8-4.6A1530.5 1530.5 0 0 0 14 8.8l33.5-5.4Zm128.9-1.3-1.3 14.7-.4 4-.1 2.2-.4 6.4-.3 5.2-.7 13.7-.3 9.6-.5 13.8-.4 8.1-8 1.4a84 84 0 0 1-5.1.6l-2.8.5-18.8 3.1.4-3.7-5 .6-3.3.5c-.6 0-1.1 0-1.7.2l-15.3 2 7.7-25.4 3-10.4 2.8-9 1.8-6.3 2.9-9.6.7-2.5a291.9 291.9 0 0 0 4-14.6 416.8 416.8 0 0 0 18-1.4c3.5-.3 6.9-.8 10.2-1.4l12.9-2.3Zm141.4 27.3-6.7 35.3-13.9-.4H294l-2.7-.1H287a177.9 177.9 0 0 0-4.2 0l-1.3.1-4.4.1h-13l9.3-34.5 11.3.5a982.8 982.8 0 0 1 4.5.1h3.9a254.2 254.2 0 0 0 12-.3l12.9-.8Z"/>
  </defs>
  <g fill="none">
    <g transform="translate(60.3 38.9)">
      <use xlink:href="#a" fill="#000" filter="url(#b)"/>
      <use xlink:href="#a" fill="#FFF"/>
    </g>
    <path fill="#FF2FA9" d="m123.8 53.6 9.8-1.2-.7 3.2a745.7 745.7 0 0 0-6 29.6l-.7 4-1 5.2-.3 2a249 249 0 0 0-1 6.3l-.5 2.7-.4 3.6-1.7.4-1.5.3-2.5.5-4.2 1-3.2.9a564 564 0 0 0-.9-10.9l-.1-1.3a472.8 472.8 0 0 0-1-9l-.1-1a226 226 0 0 0-1.3-8.1l-.6 3v.5a209 209 0 0 0-.9 4.2l-.3 1.8a351.4 351.4 0 0 0-1.3 7.6l-.6 2.7c-.5 2.7-1 5.6-1.7 8.5l-11.7 2.7 1-4.6a2794.1 2794.1 0 0 0 5-25.7l.3-1.6a508 508 0 0 0 4.1-27.1h3.5a111.5 111.5 0 0 0 5.9-.1l2-.1h1.4c.8 3.7 1.5 7.3 2 10.7l2.2 11.2 1.3 6.3.2-1.2.4-2 .1-.5.5-2.6.4-1.8.6-3.1.3-1.6 1-4.7 1.4-7 .8-3.7Zm32.3.4c1.4 0 2.8.2 4 .5 1.3.4 2.4 1 3.4 1.7 1 .8 1.7 1.7 2.2 3 .6 1 .9 2.6.9 4.3l-.2 2.3-.4 2.4-11.6 3.3a22 22 0 0 0 .4-2.5c0-1.6-.3-2.8-.8-3.5a2.8 2.8 0 0 0-2.2-1.1c-.5 0-1 .2-1.6.5l-1.8 1.2c-.7.5-1.2 1.1-1.6 1.8-.4.7-.6 1.5-.6 2.3a5 5 0 0 0 1 3.2 14 14 0 0 0 2.7 2.4 72 72 0 0 0 3.5 2.2 15.2 15.2 0 0 1 6.2 7.6c.7 1.9 1 4.2 1 7a18.8 18.8 0 0 1-6.3 14.4 23.7 23.7 0 0 1-15.4 5.6c-2.2 0-4.3-.6-6.4-1.8-2.2-1.1-4.2-3-6.2-5.4l6-11.6c.3.7.9 1.4 1.6 2 .8.8 1.6 1.4 2.5 2l2.8 1.3c1 .3 1.8.5 2.6.5a6.8 6.8 0 0 0 3.9-1.3 5 5 0 0 0 1.4-1.5 4 4 0 0 0 .5-2 6 6 0 0 0-1.2-3.5c-.9-1-1.9-2.1-3.1-3.1a78 78 0 0 0-4-3 37 37 0 0 1-4-3.2 18.1 18.1 0 0 1-3-3.8 7.3 7.3 0 0 1-1.3-4.6c0-2.8.8-5.4 2.4-7.8a28 28 0 0 1 14.4-10.2c2.9-1 5.7-1.6 8.3-1.6Zm-72.9 2.4 12.5-2-3.1 18-.5 3-1.2 7.6-.8 4.7-1 6.2-1.2 7.6-.6 4-.8 5.3h-1.3l-1.2.2h-.4l-4.3.5-2.4.3-2.3.3a9 9 0 0 0-1.3.2l.3-1.4 1.3-6.2.5-2.5a1114 1114 0 0 0 3-15.6l.7-4.7a1539.7 1539.7 0 0 0 4.1-25.5ZM323.7 54c2.9 0 5.3.5 7.3 1.4a13 13 0 0 1 7.6 9.3c.6 2.2 1 4.4 1 6.8a52.5 52.5 0 0 1-9.9 27 39.9 39.9 0 0 1-16 12.4 26.8 26.8 0 0 1-14.6 1.5l2.2-10.9 2-10.6 1.2-6.5.5-2.7 1.3-7 .9-5 .6-3.8.5-2.5 1.2-7.6a78.6 78.6 0 0 1 14.2-1.8Zm-89.3 1.4 14-1.9-1 4.6a3491 3491 0 0 0-5 21.3l-.6 3.2a860.5 860.5 0 0 0-2.4 12.1l-.3 1.4-.8 5 3.5-.2h4.8a54.6 54.6 0 0 0 .6 5.3l.2 1.1v.7l.2 1.2.2.7h-2.5a90.7 90.7 0 0 0-21.1 2.7l.4-3a772.2 772.2 0 0 1 2.2-14.2l.5-3.1 1.1-6.4a1505.1 1505.1 0 0 1 6-30.6Zm205.3-2.2a382.6 382.6 0 0 0-6 26l-.4 2.4-1 5.6-.1 1c-1.2 6.8-2.3 13.7-3.3 20.8l-12.5 1.5 1.8-9.4.8-3.9.6-2.7.3-1.4 1.3-7.1-7.8.7-1 5.1-.7 4.2-1 5.4-1.7 8.6-12.4 2.6 1.7-8.4 2.7-13.5 1-6.7.5-2.8a494 494 0 0 0 2.9-17.5l.2-1.5 1.1-8.2 2.9.2h.5a127.6 127.6 0 0 0 6.2.3h3.4a1749.6 1749.6 0 0 0-5.2 22.9l8-1 2-11c.5-3.5 1.3-7.1 2.3-11l3.4-.4 1.4-.1 8-.7Zm-181.1 2.2 14-1.9-1.1 4.6a3491 3491 0 0 0-4.6 20l-.3 1.3a888.1 888.1 0 0 0-2.9 14.1l-.2 1.2-1 6.4 3.5-.2h4.8a54.6 54.6 0 0 0 .5 5.3l.2 1.1.1.7.2 1.2.1.7h-2.5a90.7 90.7 0 0 0-21 2.7l.2-2.3.7-4.9.1-.8A292 292 0 0 1 252 89l.6-3.2a1505.1 1505.1 0 0 1 6-30.6Zm231.3-1.5a8.8 8.8 0 0 1 6.7 3 13.4 13.4 0 0 1 2.8 8.2v2.1L488.9 70c-.7-1.3-1.4-2-2.3-2-.8 0-1.7.5-2.6 1.5a17 17 0 0 0-2.8 3.8 54 54 0 0 0-4.9 11.2 62.8 62.8 0 0 0-2.1 10c0 1.7.2 2.9.6 3.6.5.7 1 1 1.8 1a4 4 0 0 0 2-.7c.8-.4 1.5-1 2.1-1.7.7-.7 1.2-1.6 1.8-2.5.5-.9.9-1.8 1.1-2.7l9.1 3.7c-1.3 3-2.7 5.5-4.3 7.6a31 31 0 0 1-5 5.5 19 19 0 0 1-5.2 3.2 14 14 0 0 1-5 1 9.2 9.2 0 0 1-8.2-4.4c-1-1.5-1.8-3.4-2.4-5.5-.6-2.2-1-4.8-1-7.7a54 54 0 0 1 8-28c2.5-4 5.5-7 9-9.4 3.4-2.4 7.2-3.6 11.3-3.6Zm-95.7 0a8.8 8.8 0 0 1 6.8 3 13.4 13.4 0 0 1 2.8 8.2v1l-.1 1.1-10.5 2.8c-.6-1.3-1.4-2-2.2-2-.9 0-1.8.5-2.7 1.5a17 17 0 0 0-2.8 3.8 54 54 0 0 0-4.9 11.2 62.8 62.8 0 0 0-2.1 10c0 1.7.2 2.9.7 3.6.4.7 1 1 1.8 1a4 4 0 0 0 2-.7 11.4 11.4 0 0 0 3.8-4.2c.5-.9 1-1.8 1.1-2.7l9.1 3.7a36 36 0 0 1-4.2 7.6 31 31 0 0 1-5 5.5 19 19 0 0 1-5.2 3.2 14 14 0 0 1-5.2 1 9.2 9.2 0 0 1-8-4.4 20 20 0 0 1-2.5-5.5c-.6-2.2-.9-4.8-.9-7.7a54 54 0 0 1 8-28c2.4-4 5.4-7 8.8-9.4 3.5-2.4 7.3-3.6 11.4-3.6ZM540 52.6a766 766 0 0 0-9.7 13.4l-2.7 3.8-1 1.5-2.9 4.1-.7 1.2-1.6 2.5a171 171 0 0 0 4.1 15.6l1.6 5 3.3 10.4a166.4 166.4 0 0 0-11.1-.2h-.9l-4.5.2-1.3-9.5-.2-1.4-1.6-11-1.4 1.7-.2.8-1 5.1-1.4 6.8-.6 3.2-.9 4.8-13 1.9 4.5-21.8.8-4.6a2131.7 2131.7 0 0 1 2.5-14.5 376.2 376.2 0 0 0 2.3-17.5h1l2 .2h1.2l4.3.3 4.8.2v.2l-.2.6-.2 1.5-.5 2.3-.3 1.5-.6 3-1.4 8 .5-.1.7-1.2 1.6-2.4 2-3.2 1-1.6 2.5-4 1.8-2.7 1.4-2.3a404.9 404.9 0 0 0 16-1.8Zm-342.1 1.5-1 4.3-.4 2.5-.5 2.2a66 66 0 0 1-.5 2.3c-1.1.4-2.3.6-3.5.7a52 52 0 0 0-3.6.5l-.4 2a542.5 542.5 0 0 0-3 16.4l-.3 1.8-1.1 7c-.9 5.3-1.7 10.8-2.4 16.4l-14.4 2.3 3-14.5 1-5.3.7-3.8.3-1.3a1715 1715 0 0 0 2.6-15l.4-3.1.5-3.5c-1.2-.2-2.5-.2-3.7-.2a11 11 0 0 1-3.8-.4 48 48 0 0 0 .2-6.4l.1-3v-1a108.7 108.7 0 0 0 16.3.1h1.8a198.8 198.8 0 0 0 11.6-1.1Zm269.9-.7-1 3.6-.7 3.2-.3 1.3-.3 1.6h-.4l-2 .1-3 .1h-6.5l-2.8 14.4 4-.2h.7l2.6-.1h1.9l1.8-.1a342 342 0 0 0-1.3 8.8h-.3a46.3 46.3 0 0 1-4.7.2h-3.1l-2.7.2-2.7 14.7 11.7-1.8-.8 9-25.9 4 10.5-56.8 25.3-2.2Zm-159.8 0-1 3.6-.7 3.2-.3 1.3-.3 1.6h-.4l-1.9.1-3.1.1h-6.4L291 77.8l3.9-.2h.7l2.7-.1h1.8l1.8-.1a342 342 0 0 0-1.3 8.8h-.3a46.3 46.3 0 0 1-4.7.2h-3l-2.8.2-2.7 14.7 11.7-1.8-.8 9-25.8 4 10.4-56.8 25.3-2.2Zm-82.2-.3-.2 1.7-.3 4.1-.2 2.3-.4 6.6-.2 5.2-.7 13.7-.4 9.7-.5 13.8a74 74 0 0 1-4.8.6l-3 .5-5.7 1 .4-3.5a1362.3 1362.3 0 0 1 .5-4.7l.4-4.2.1-1.2h-7l-3.1 11.5-1.7.3-2 .2-5 .6-3.4.4-1.6.2 3.2-10.5 3.1-10.4 2.7-9 1.8-6.4 3-9.6.7-2.5 2.2-7.9 11-1c3.8-.3 7.5-.8 11-1.5Zm95 12.2A269 269 0 0 1 317 83a540.2 540.2 0 0 0-3.8 19.7 15 15 0 0 0 3.7-3.5 58.2 58.2 0 0 0 8.6-17.4 53 53 0 0 0 2-10.2c0-2-.5-3.5-1.6-4.6-1-1.2-2.8-1.7-5.2-1.7ZM366 79l-2.7 14.4-5.3-.2h-3.4l-2.8-.1h-4.6a187.3 187.3 0 0 0-4.6 0l-1.2.1h-4l3.8-14h3.3a972.5 972.5 0 0 1 4.8.2h4.1A263.5 263.5 0 0 0 366 79ZM213.7 63.7h-1.2l-1.9 7-5 20h1.2l3.5-.2h.4l.7-.1v-.2l.1-1 .1-1.2.1-1 .2-2.4.2-1.7.3-3.5.1-1.8.7-7 .5-7Z"/>
  </g>
</svg>
